<svg xmlns="http://www.w3.org/2000/svg" viewBox="0 0 100 100">
  <!-- Sonne -->
  <circle cx="50" cy="30" r="12" fill="#f5a623"/>
  <line x1="50" y1="10" x2="50" y2="4" stroke="#f5a623" stroke-width="3" stroke-linecap="round"/>
  <line x1="50" y1="56" x2="50" y2="50" stroke="#f5a623" stroke-width="3" stroke-linecap="round"/>
  <line x1="30" y1="30" x2="24" y2="30" stroke="#f5a623" stroke-width="3" stroke-linecap="round"/>
  <line x1="76" y1="30" x2="70" y2="30" stroke="#f5a623" stroke-width="3" stroke-linecap="round"/>
  <line x1="36" y1="16" x2="32" y2="12" stroke="#f5a623" stroke-width="3" stroke-linecap="round"/>
  <line x1="68" y1="48" x2="64" y2="44" stroke="#f5a623" stroke-width="3" stroke-linecap="round"/>
  <line x1="64" y1="16" x2="68" y2="12" stroke="#f5a623" stroke-width="3" stroke-linecap="round"/>
  <line x1="32" y1="48" x2="36" y2="44" stroke="#f5a623" stroke-width="3" stroke-linecap="round"/>
  <!-- Wolke -->
  <ellipse cx="45" cy="62" rx="18" ry="12" fill="#b0c4de"/>
  <ellipse cx="62" cy="65" rx="14" ry="10" fill="#b0c4de"/>
  <ellipse cx="33" cy="67" rx="10" ry="8" fill="#b0c4de"/>
  <rect x="23" y="67" width="53" height="10" fill="#b0c4de"/>
  <!-- Regentropfen -->
  <line x1="35" y1="82" x2="32" y2="92" stroke="#4a90d9" stroke-width="2.5" stroke-linecap="round"/>
  <line x1="48" y1="82" x2="45" y2="92" stroke="#4a90d9" stroke-width="2.5" stroke-linecap="round"/>
  <line x1="61" y1="82" x2="58" y2="92" stroke="#4a90d9" stroke-width="2.5" stroke-linecap="round"/>
</svg>
